<?xml version="1.0" encoding="utf-8"?>
<!-- Generator: Adobe Illustrator 25.4.1, SVG Export Plug-In . SVG Version: 6.00 Build 0)  -->
<svg version="1.1" width="50px" height="50px" id="Layer_1" xmlns="http://www.w3.org/2000/svg" xmlns:xlink="http://www.w3.org/1999/xlink" x="0px" y="0px"
	 viewBox="0 0 50 50" style="enable-background:new 0 0 50 50;" xml:space="preserve">
<style type="text/css">
	.st0{display:none;fill:#999999;}
	.st1{fill:#FFFFFF;}
</style>
<rect class="st0" width="50" height="50"/>
<path class="st1" d="M17.2,36.8c0,0,1-1.3,1.9-2.3c-3.6-1.1-4.9-3.3-4.9-3.3s0.3,0.2,0.8,0.5c0,0,0.1,0.1,0.1,0.1
	c0.1,0.1,0.2,0.1,0.3,0.1c0.7,0.4,1.4,0.7,2.1,1c1.2,0.4,2.5,0.9,4.1,1.2c2.1,0.4,4.6,0.5,7.3,0c1.3-0.2,2.7-0.6,4.1-1.2
	c1-0.4,2.1-0.9,3.2-1.7c0,0-1.4,2.3-5.1,3.3c0.8,1.1,1.9,2.3,1.9,2.3c6.2-0.2,8.6-4.3,8.6-4.3c0-9.1-4-16.4-4-16.4c-4-3-7.9-3-7.9-3
	l-0.4,0.4c4.8,1.5,7,3.6,7,3.6c-2.9-1.6-5.8-2.4-8.5-2.7c-2-0.2-4-0.2-5.7,0.1c-0.2,0-0.3,0-0.5,0.1c-1,0.1-3.4,0.4-6.4,1.8
	c-1,0.5-1.7,0.8-1.7,0.8s2.3-2.2,7.4-3.7l-0.3-0.3c0,0-3.9-0.1-7.9,3c0,0-4,7.3-4,16.4C8.6,32.5,10.9,36.6,17.2,36.8z M30,23.7
	c1.6,0,2.9,1.4,2.9,3.1c0,1.7-1.3,3.1-2.9,3.1c-1.6,0-2.9-1.4-2.9-3.1C27.1,25.1,28.4,23.7,30,23.7z M19.7,23.7
	c1.6,0,2.9,1.4,2.9,3.1c0,1.7-1.3,3.1-2.9,3.1c-1.6,0-2.9-1.4-2.9-3.1C16.9,25.1,18.1,23.7,19.7,23.7z"/>
</svg>
