<?xml version="1.0" encoding="utf-8"?>
<!-- Generator: Adobe Illustrator 25.4.1, SVG Export Plug-In . SVG Version: 6.00 Build 0)  -->
<svg version="1.1" width="50px" height="50px" id="Layer_1" xmlns="http://www.w3.org/2000/svg" xmlns:xlink="http://www.w3.org/1999/xlink" x="0px" y="0px"
	 viewBox="0 0 50 50" style="enable-background:new 0 0 50 50;" xml:space="preserve">
<style type="text/css">
	.st0{fill:#FFFFFF;}
</style>
<g>
	<g>
		<path class="st0" d="M25,13.52c3.74,0,4.18,0.01,5.66,0.08c1.36,0.06,2.11,0.29,2.6,0.48c0.65,0.25,1.12,0.56,1.61,1.05
			c0.49,0.49,0.79,0.96,1.05,1.61c0.19,0.49,0.42,1.23,0.48,2.6c0.07,1.48,0.08,1.92,0.08,5.66s-0.01,4.18-0.08,5.66
			c-0.06,1.36-0.29,2.11-0.48,2.6c-0.25,0.65-0.56,1.12-1.05,1.61c-0.49,0.49-0.96,0.79-1.61,1.05c-0.49,0.19-1.23,0.42-2.6,0.48
			c-1.48,0.07-1.92,0.08-5.66,0.08c-3.74,0-4.18-0.01-5.66-0.08c-1.36-0.06-2.11-0.29-2.6-0.48c-0.65-0.25-1.12-0.56-1.61-1.05
			c-0.49-0.49-0.79-0.96-1.05-1.61c-0.19-0.49-0.42-1.23-0.48-2.6c-0.07-1.48-0.08-1.92-0.08-5.66s0.01-4.18,0.08-5.66
			c0.06-1.36,0.29-2.11,0.48-2.6c0.25-0.65,0.56-1.12,1.05-1.61c0.49-0.49,0.96-0.79,1.61-1.05c0.49-0.19,1.23-0.42,2.6-0.48
			C20.82,13.54,21.26,13.52,25,13.52 M25,11c-3.8,0-4.28,0.02-5.77,0.08c-1.49,0.07-2.51,0.3-3.4,0.65
			c-0.92,0.36-1.7,0.84-2.48,1.61c-0.78,0.78-1.26,1.56-1.61,2.48c-0.35,0.89-0.58,1.91-0.65,3.4C11.02,20.72,11,21.2,11,25
			c0,3.8,0.02,4.28,0.08,5.77c0.07,1.49,0.3,2.51,0.65,3.4c0.36,0.92,0.84,1.7,1.61,2.48c0.78,0.78,1.56,1.26,2.48,1.61
			c0.89,0.35,1.91,0.58,3.4,0.65C20.72,38.98,21.2,39,25,39c3.8,0,4.28-0.02,5.77-0.08c1.49-0.07,2.51-0.3,3.4-0.65
			c0.92-0.36,1.7-0.84,2.48-1.61c0.78-0.78,1.26-1.56,1.61-2.48c0.35-0.89,0.58-1.91,0.65-3.4C38.98,29.28,39,28.8,39,25
			s-0.02-4.28-0.08-5.77c-0.07-1.49-0.3-2.51-0.65-3.4c-0.36-0.92-0.84-1.7-1.61-2.48c-0.78-0.78-1.56-1.26-2.48-1.61
			c-0.89-0.35-1.91-0.58-3.4-0.65C29.28,11.02,28.8,11,25,11L25,11z"/>
		<path class="st0" d="M25,17.81c-3.97,0-7.19,3.22-7.19,7.19s3.22,7.19,7.19,7.19c3.97,0,7.19-3.22,7.19-7.19S28.97,17.81,25,17.81
			z M25,29.67c-2.58,0-4.67-2.09-4.67-4.67s2.09-4.67,4.67-4.67s4.67,2.09,4.67,4.67S27.58,29.67,25,29.67z"/>
		<circle class="st0" cx="32.47" cy="17.53" r="1.68"/>
	</g>
</g>
</svg>
