<?xml version="1.0" encoding="utf-8"?>
<!-- Generator: Adobe Illustrator 25.4.1, SVG Export Plug-In . SVG Version: 6.00 Build 0)  -->
<svg version="1.1" width="50px" height="50px" id="Layer_1" xmlns="http://www.w3.org/2000/svg" xmlns:xlink="http://www.w3.org/1999/xlink" x="0px" y="0px"
	 viewBox="0 0 50 50" style="enable-background:new 0 0 50 50;" xml:space="preserve">
<style type="text/css">
	.st0{fill-rule:evenodd;clip-rule:evenodd;fill:#FFFFFF;}
</style>
<path class="st0" d="M25,11c-7.89,0-14,5.78-14,13.58c0,4.08,1.67,7.61,4.4,10.04c0.23,0.21,0.37,0.49,0.38,0.8l0.08,2.49
	c0.02,0.8,0.84,1.31,1.57,0.99l2.78-1.23c0.24-0.1,0.5-0.12,0.75-0.05c1.28,0.35,2.64,0.54,4.05,0.54c7.89,0,14-5.78,14-13.58
	C39,16.78,32.89,11,25,11z M33.41,21.45l-4.11,6.52c-0.65,1.04-2.05,1.3-3.04,0.56l-3.27-2.45c-0.3-0.23-0.71-0.23-1.01,0
	l-4.42,3.35c-0.59,0.45-1.36-0.26-0.96-0.88l4.11-6.52c0.65-1.04,2.05-1.3,3.04-0.56l3.27,2.45c0.3,0.23,0.71,0.22,1.01,0l4.42-3.35
	C33.03,20.12,33.8,20.82,33.41,21.45z"/>
</svg>
