<?xml version="1.0" encoding="utf-8"?>
<!-- Generator: Adobe Illustrator 25.4.1, SVG Export Plug-In . SVG Version: 6.00 Build 0)  -->
<svg version="1.1" width="50px" height="50px" id="Layer_1" xmlns="http://www.w3.org/2000/svg" xmlns:xlink="http://www.w3.org/1999/xlink" x="0px" y="0px"
	 viewBox="0 0 50 50" style="enable-background:new 0 0 50 50;" xml:space="preserve">
<style type="text/css">
	.st0{display:none;fill:#999999;}
	.st1{fill:#FFFFFF;}
</style>
<g>
</g>
<rect class="st0" width="50" height="50"/>
<g>
	<polygon class="st1" points="12.56,15.69 25,26.11 37.44,15.69 	"/>
	<path class="st1" d="M25.6,28.04c0,0-0.01,0-0.01,0.01c-0.08,0.06-0.16,0.11-0.25,0.14c-0.02,0.01-0.04,0.01-0.06,0.02
		c-0.09,0.03-0.18,0.05-0.28,0.05c0,0,0,0,0,0l0,0l0,0l0,0c-0.09,0-0.19-0.02-0.28-0.05c-0.02-0.01-0.04-0.01-0.06-0.02
		c-0.09-0.03-0.17-0.08-0.25-0.14c0,0-0.01,0-0.01-0.01L11.23,17.01v17.29h27.53V17.01L25.6,28.04z"/>
</g>
</svg>
