<?xml version="1.0" encoding="utf-8"?>
<!-- Generator: Adobe Illustrator 25.4.1, SVG Export Plug-In . SVG Version: 6.00 Build 0)  -->
<svg version="1.1" width="50px" height="50px" id="Layer_1" xmlns="http://www.w3.org/2000/svg" xmlns:xlink="http://www.w3.org/1999/xlink" x="0px" y="0px"
	 viewBox="0 0 50 50" style="enable-background:new 0 0 50 50;" xml:space="preserve">
<style type="text/css">
	.st0{fill-rule:evenodd;clip-rule:evenodd;fill:#FFFFFF;}
</style>
<path class="st0" d="M23.51,29.15c-0.02,0.08-0.04,0.14-0.06,0.2c-0.97,3.78-1.07,4.62-2.07,6.38c-0.47,0.83-1.01,1.63-1.6,2.38
	c-0.07,0.09-0.13,0.2-0.26,0.17c-0.15-0.03-0.16-0.16-0.17-0.28c-0.16-1.15-0.25-2.3-0.21-3.46c0.05-1.51,0.24-2.03,2.19-10.23
	c0.03-0.13,0-0.23-0.05-0.34c-0.47-1.26-0.56-2.54-0.15-3.83c0.88-2.8,4.05-3.01,4.61-0.7c0.34,1.43-0.56,3.29-1.26,6.05
	c-0.57,2.28,2.11,3.9,4.4,2.23c2.11-1.53,2.93-5.21,2.78-7.81c-0.31-5.19-6-6.31-9.61-4.64c-4.14,1.91-5.08,7.05-3.21,9.39
	c0.24,0.3,0.42,0.48,0.34,0.78c-0.12,0.47-0.23,0.94-0.36,1.41c-0.1,0.35-0.39,0.47-0.74,0.33c-0.69-0.28-1.26-0.72-1.73-1.3
	c-1.59-1.97-2.04-5.85,0.06-9.15c2.33-3.65,6.65-5.12,10.6-4.67c4.72,0.54,7.7,3.76,8.26,7.42c0.25,1.67,0.07,5.77-2.27,8.68
	c-2.69,3.34-7.05,3.56-9.06,1.51C23.79,29.52,23.66,29.34,23.51,29.15z"/>
</svg>
