<?xml version="1.0" encoding="utf-8"?>
<!-- Generator: Adobe Illustrator 25.4.1, SVG Export Plug-In . SVG Version: 6.00 Build 0)  -->
<svg version="1.1" width="50px" height="50px" id="Layer_1" xmlns="http://www.w3.org/2000/svg" xmlns:xlink="http://www.w3.org/1999/xlink" x="0px" y="0px"
	 viewBox="0 0 50 50" style="enable-background:new 0 0 50 50;" xml:space="preserve">
<style type="text/css">
	.st1{fill:#FFFFFF;}
</style>
<g>
</g>

<path class="st1" d="M11.51,16.7c0.15,3.89,2.77,7.65,4.99,10.69c2.02,2.77,4.39,5.28,7.05,7.43c1.69,1.37,3.5,2.6,5.43,3.61
	c1.17,0.61,1.96,0.99,3.32,0.61c2.09-0.59,6.9-3.06,6.09-5.76c-0.41-1.37-2.08-2.71-3.13-3.58c-1.27-1.05-3.51-2.89-5-1.17
	c-0.89,0.86-1.82,2.83-3.22,2.97c-1.5,0.15-2.83-1.59-3.77-2.55c-1.53-1.56-2.92-3.26-4.15-5.07c-1.16-1.89,0.29-2.66,1.69-3.69
	c0.64-0.47,1.46-0.91,1.77-1.68c0.58-1.44-0.79-3.22-1.58-4.33c-0.74-1.04-1.61-2-2.56-2.86c-1.24-1.12-2.61-0.23-3.66,0.66
	C13.35,13.23,12.14,14.89,11.51,16.7z"/>
</svg>
