<?xml version="1.0" encoding="utf-8"?>
<!-- Generator: Adobe Illustrator 25.4.1, SVG Export Plug-In . SVG Version: 6.00 Build 0)  -->
<svg version="1.1" width="50px" height="50px" id="Layer_1" xmlns="http://www.w3.org/2000/svg" xmlns:xlink="http://www.w3.org/1999/xlink" x="0px" y="0px"
	 viewBox="0 0 50 50" style="enable-background:new 0 0 50 50;" xml:space="preserve">
<style type="text/css">
	.st0{display:none;fill:#999999;}
	.st1{fill:#FFFFFF;}
</style>
<g>
</g>
<rect class="st0" width="50" height="50"/>
<g>
	<path class="st1" d="M11.71,26.2l-0.17,1.49l0.17,1.49c0,0.08,0.08,0.08,0.08,0.08c0.08,0,0.08-0.08,0.08-0.08l0.25-1.49
		l-0.25-1.49c0-0.08-0.08-0.08-0.08-0.08S11.71,26.12,11.71,26.2 M12.7,25.29l-0.25,2.4l0.25,2.4c0,0.08,0.08,0.08,0.08,0.08
		c0.08,0,0.08-0.08,0.08-0.08l0.33-2.4l-0.33-2.4c0-0.08-0.08-0.08-0.08-0.08l0,0L12.7,25.29 M15.85,24.96l-0.17,2.73l0.17,2.9
		c0,0.08,0.08,0.17,0.17,0.17c0.08,0,0.17-0.08,0.17-0.17l0.33-2.9l-0.25-2.73c0-0.08-0.08-0.17-0.17-0.17
		C15.93,24.79,15.85,24.88,15.85,24.96 M13.78,24.79l-0.25,2.9l0.25,2.73c0,0.08,0.08,0.17,0.17,0.17c0,0,0.08-0.08,0.08-0.17
		l0.25-2.73l-0.25-2.9c0-0.08-0.08-0.17-0.17-0.17C13.86,24.71,13.78,24.71,13.78,24.79 M14.77,24.71l-0.25,2.98l0.25,2.82
		c0,0.08,0.08,0.17,0.17,0.17c0.08,0,0.17-0.08,0.17-0.17l0.25-2.82l-0.25-2.98c0-0.08-0.08-0.17-0.17-0.17
		C14.86,24.54,14.86,24.63,14.77,24.71 M16.93,23.22l-0.25,4.47l0.25,2.9c0,0.08,0.08,0.17,0.17,0.17c0.17,0,0.25-0.08,0.25-0.17
		l0.25-2.9l-0.25-4.47c0-0.08-0.08-0.17-0.17-0.17C17.01,23.05,16.93,23.14,16.93,23.22 M18,22.23l-0.17,5.47l0.17,2.9
		c0,0.17,0.08,0.25,0.25,0.25c0.08,0,0.25-0.08,0.25-0.25l0.25-2.9l-0.25-5.47c0-0.17-0.08-0.25-0.25-0.25S18,22.06,18,22.23
		 M22.39,21.98l-0.17,5.71l0.17,2.73c0,0.17,0.17,0.33,0.33,0.33s0.33-0.17,0.33-0.33l0.17-2.73l-0.17-5.8
		c0-0.17-0.17-0.33-0.33-0.33C22.47,21.65,22.39,21.73,22.39,21.98 M19.08,21.73l-0.17,5.96l0.17,2.82c0,0.17,0.08,0.25,0.25,0.25
		c0.17,0,0.25-0.08,0.25-0.25l0.17-2.82l-0.17-5.96c0-0.17-0.08-0.25-0.25-0.25C19.16,21.48,19.08,21.65,19.08,21.73 M21.23,21.73
		l-0.17,5.96l0.17,2.82c0,0.17,0.17,0.33,0.33,0.33c0.17,0,0.33-0.17,0.33-0.33l0.17-2.82l-0.17-5.96c0-0.17-0.17-0.33-0.33-0.33
		C21.4,21.4,21.23,21.56,21.23,21.73 M20.16,21.56l-0.17,6.13l0.17,2.82c0,0.17,0.08,0.25,0.25,0.25c0.17,0,0.25-0.08,0.25-0.25
		l0.17-2.82l-0.17-6.13c0-0.17-0.17-0.25-0.25-0.25C20.32,21.32,20.16,21.4,20.16,21.56 M23.47,20.82l-0.17,6.87l0.17,2.73
		c0,0.17,0.17,0.33,0.33,0.33s0.33-0.17,0.33-0.33l0.17-2.73l-0.17-6.87c0-0.17-0.17-0.33-0.33-0.33S23.47,20.65,23.47,20.82
		 M24.63,20.24l-0.17,7.45l0.17,2.73c0,0.17,0.17,0.33,0.33,0.33c0.17,0,0.33-0.17,0.33-0.33l0.17-2.73l-0.17-7.45
		c0-0.17-0.17-0.33-0.33-0.33h-0.08C24.71,19.91,24.63,20.07,24.63,20.24 M25.95,19.49c-0.25,0.08-0.33,0.17-0.33,0.41v10.52
		c0,0.17,0.17,0.33,0.33,0.41h9.19c1.82,0,3.31-1.49,3.31-3.31c0-1.82-1.49-3.31-3.31-3.31c-0.41,0-0.91,0.08-1.24,0.25
		c-0.25-2.98-2.73-5.3-5.8-5.3c-0.17,0-0.25,0-0.41,0C27.11,19.16,26.53,19.33,25.95,19.49"/>
</g>
</svg>
