<?xml version="1.0" encoding="utf-8"?>
<!-- Generator: Adobe Illustrator 25.4.1, SVG Export Plug-In . SVG Version: 6.00 Build 0)  -->
<svg version="1.1" width="50px" height="50px" id="Layer_1" xmlns="http://www.w3.org/2000/svg" xmlns:xlink="http://www.w3.org/1999/xlink" x="0px" y="0px"
	 viewBox="0 0 50 50" style="enable-background:new 0 0 50 50;" xml:space="preserve">
<style type="text/css">
	.st0{display:none;fill:#999999;}
	.st1{fill:url(#SVGID_1_);}
	.st2{fill-rule:evenodd;clip-rule:evenodd;fill:#FFFFFF;}
</style>
<g>
</g>
<rect class="st0" width="50" height="50"/>
<g>
	<linearGradient id="SVGID_1_" gradientUnits="userSpaceOnUse" x1="38.4871" y1="30.1259" x2="38.4875" y2="30.1252">
		<stop  offset="0" style="stop-color:#00B7F1"/>
		<stop  offset="1" style="stop-color:#007DC4"/>
	</linearGradient>
	<polygon class="st1" points="38.49,30.13 38.49,30.13 38.49,30.13 	"/>
	<path class="st2" d="M38.49,30.13C38.49,30.13,38.49,30.13,38.49,30.13c0-0.04-0.01-0.07-0.01-0.1c-0.01-0.07-0.01-0.14-0.02-0.22
		c-0.01-0.09-0.02-0.18-0.03-0.26c0-0.03-0.01-0.06-0.01-0.09c-0.15-0.96-0.47-1.87-0.92-2.68c0.08-0.56,0.12-1.13,0.12-1.72
		c0-6.94-5.65-12.57-12.61-12.57c-0.45,0-0.9,0.03-1.34,0.07c-0.02-0.01-0.04-0.02-0.05-0.03c0,0,0,0,0,0
		c-0.03-0.02-0.07-0.04-0.11-0.06c-0.03-0.02-0.05-0.03-0.08-0.05c-0.1-0.06-0.19-0.11-0.29-0.16c-0.03-0.02-0.06-0.03-0.09-0.05
		c-0.01-0.01-0.02-0.01-0.03-0.02c0,0,0,0,0,0c-0.09-0.04-0.17-0.08-0.26-0.12c-0.03-0.01-0.06-0.03-0.1-0.04
		c-0.06-0.03-0.12-0.05-0.19-0.08c0,0-0.01,0-0.01,0c-0.04-0.02-0.08-0.03-0.13-0.05c-0.02-0.01-0.04-0.02-0.06-0.02c0,0,0,0,0,0
		c-0.35-0.13-0.72-0.24-1.1-0.32c-0.01,0-0.02-0.01-0.03-0.01c-0.2-0.04-0.41-0.08-0.62-0.11c-0.02,0-0.04-0.01-0.06-0.01
		c0,0,0,0,0,0c-0.32-0.04-0.65-0.06-0.99-0.06c-4.4,0-7.96,3.55-7.96,7.93c0,0.23,0.01,0.45,0.03,0.67c0,0,0,0,0,0
		c0,0.02,0,0.04,0.01,0.06c0.01,0.06,0.01,0.13,0.02,0.19c0.01,0.09,0.02,0.17,0.03,0.26c0,0.02,0.01,0.04,0.01,0.07
		c0.15,0.97,0.47,1.88,0.93,2.69c-0.09,0.59-0.13,1.2-0.13,1.82c0,6.94,5.65,12.57,12.61,12.57c0.51,0,1.01-0.03,1.5-0.09
		c0,0,0.01,0.01,0.01,0.01c0.02,0.01,0.04,0.02,0.06,0.03c0.02,0.01,0.03,0.02,0.05,0.03c0.02,0.01,0.04,0.02,0.06,0.04
		c0.16,0.09,0.31,0.17,0.48,0.24c0.01,0,0.01,0.01,0.02,0.01c0,0,0,0,0,0c0.1,0.05,0.2,0.09,0.31,0.13
		c0.03,0.01,0.06,0.02,0.08,0.03c0.11,0.04,0.21,0.08,0.32,0.12c0.02,0.01,0.04,0.01,0.05,0.02c0,0,0,0,0,0
		c0.14,0.05,0.28,0.09,0.42,0.13c0.01,0,0.03,0.01,0.04,0.01c0.1,0.03,0.19,0.05,0.29,0.07c0.02,0.01,0.05,0.01,0.07,0.02
		c0.09,0.02,0.18,0.04,0.28,0.06c0.03,0.01,0.07,0.01,0.1,0.02c0.09,0.01,0.17,0.03,0.26,0.04c0.04,0.01,0.09,0.01,0.13,0.02
		c0.08,0.01,0.16,0.02,0.24,0.03c0.01,0,0.02,0,0.03,0c0,0,0,0,0,0c0.24,0.02,0.48,0.03,0.72,0.03c4.4,0,7.96-3.55,7.96-7.94
		C38.51,30.51,38.5,30.32,38.49,30.13z M29.22,30.39c-0.46,0.63-1.1,1.1-1.84,1.37c-0.89,0.32-1.82,0.47-2.77,0.45
		c-1.29,0.05-2.58-0.2-3.77-0.71c-0.3-0.14-0.57-0.34-0.78-0.6c-0.17-0.24-0.26-0.53-0.25-0.82c-0.02-0.31,0.1-0.62,0.33-0.84
		c0.24-0.21,0.54-0.31,0.86-0.3c0.35,0,0.69,0.09,1,0.26c0.38,0.19,0.68,0.34,0.91,0.43c0.25,0.11,0.51,0.19,0.78,0.25
		c0.33,0.07,0.67,0.11,1,0.1c0.6,0.04,1.19-0.12,1.69-0.45c0.38-0.3,0.59-0.75,0.57-1.23c0-0.33-0.13-0.66-0.36-0.9
		c-0.3-0.31-0.66-0.57-1.05-0.76c-0.46-0.24-1.11-0.54-1.95-0.89c-0.75-0.3-1.47-0.67-2.14-1.11c-0.51-0.34-0.93-0.78-1.24-1.31
		c-0.3-0.56-0.44-1.18-0.43-1.81c-0.02-0.8,0.25-1.58,0.77-2.19c0.54-0.61,1.23-1.08,2-1.34c0.84-0.3,1.73-0.45,2.62-0.44
		c0.58-0.01,1.17,0.04,1.74,0.13c0.41,0.06,0.82,0.17,1.21,0.31c0.36,0.12,0.68,0.33,0.95,0.6c0.19,0.23,0.3,0.51,0.29,0.81
		c0.01,0.31-0.1,0.62-0.31,0.85c-0.2,0.21-0.48,0.33-0.77,0.32c-0.2,0-0.39-0.05-0.57-0.13c-0.44-0.2-0.9-0.37-1.37-0.5
		c-0.43-0.11-0.87-0.17-1.32-0.16c-0.58-0.02-1.15,0.13-1.65,0.42c-0.43,0.26-0.68,0.73-0.66,1.23c0,0.32,0.12,0.63,0.34,0.87
		c0.26,0.27,0.58,0.5,0.92,0.66c0.39,0.19,0.96,0.45,1.73,0.76c0.08,0.03,0.17,0.06,0.25,0.1c0.75,0.3,1.46,0.66,2.14,1.1
		c0.53,0.35,0.98,0.81,1.32,1.35c0.33,0.57,0.49,1.22,0.48,1.88C29.91,28.94,29.68,29.73,29.22,30.39z"/>
</g>
</svg>
