<?xml version="1.0" encoding="utf-8"?>
<!-- Generator: Adobe Illustrator 25.4.1, SVG Export Plug-In . SVG Version: 6.00 Build 0)  -->
<svg version="1.1" width="50px" height="50px" id="Layer_1" xmlns="http://www.w3.org/2000/svg" xmlns:xlink="http://www.w3.org/1999/xlink" x="0px" y="0px"
	 viewBox="0 0 50 50" style="enable-background:new 0 0 50 50;" xml:space="preserve">
<style type="text/css">
	.st0{fill:#FFFFFF;}
</style>
<g>
</g>
<path class="st0" d="M36.42,23.06c-0.21,0.02-0.42,0.03-0.63,0.03c-2.3,0-4.44-1.16-5.7-3.08v10.5c0,4.28-3.47,7.76-7.76,7.76
	c-4.28,0-7.76-3.47-7.76-7.76c0-4.28,3.47-7.76,7.76-7.76l0,0c0.16,0,0.32,0.01,0.48,0.02v3.82c-0.16-0.02-0.32-0.05-0.48-0.05
	c-2.19,0-3.96,1.77-3.96,3.96c0,2.19,1.77,3.96,3.96,3.96c2.19,0,4.12-1.72,4.12-3.91l0.04-17.83h3.66
	c0.34,3.28,2.99,5.84,6.28,6.08L36.42,23.06"/>
</svg>
