<?xml version="1.0" encoding="utf-8"?>
<!-- Generator: Adobe Illustrator 25.4.1, SVG Export Plug-In . SVG Version: 6.00 Build 0)  -->
<svg version="1.1" width="50px" height="50px" id="Layer_1" xmlns="http://www.w3.org/2000/svg" xmlns:xlink="http://www.w3.org/1999/xlink" x="0px" y="0px"
	 viewBox="0 0 50 50" style="enable-background:new 0 0 50 50;" xml:space="preserve">
<style type="text/css">
	.st0{fill:#FFFFFF;}
</style>
<g>
	<g>
		<path class="st0" d="M20.06,36.26c10.05,0,15.55-8.67,15.55-16.18c0-0.25,0-0.49-0.02-0.74c1.07-0.8,1.99-1.8,2.73-2.94
			c-0.98,0.45-2.03,0.76-3.14,0.9c1.13-0.7,1.99-1.82,2.4-3.15c-1.06,0.65-2.23,1.13-3.47,1.38c-1-1.11-2.42-1.8-3.99-1.8
			c-3.02,0-5.47,2.55-5.47,5.69c0,0.45,0.05,0.88,0.14,1.3c-4.54-0.24-8.57-2.5-11.27-5.94c-0.47,0.84-0.74,1.82-0.74,2.86
			c0,1.97,0.97,3.71,2.43,4.73c-0.9-0.03-1.74-0.29-2.48-0.71c0,0.02,0,0.05,0,0.07c0,2.75,1.88,5.05,4.39,5.58
			c-0.46,0.13-0.94,0.2-1.44,0.2c-0.35,0-0.69-0.04-1.03-0.1c0.7,2.26,2.71,3.9,5.11,3.95c-1.87,1.53-4.23,2.43-6.79,2.43
			c-0.44,0-0.88-0.03-1.3-0.08C14.1,35.32,16.97,36.26,20.06,36.26"/>
	</g>
</g>
</svg>
