<?xml version="1.0" encoding="utf-8"?>
<!-- Generator: Adobe Illustrator 25.4.1, SVG Export Plug-In . SVG Version: 6.00 Build 0)  -->
<svg version="1.1" width="50px" height="50px" id="Layer_1" xmlns="http://www.w3.org/2000/svg" xmlns:xlink="http://www.w3.org/1999/xlink" x="0px" y="0px"
	 viewBox="0 0 50 50" style="enable-background:new 0 0 50 50;" xml:space="preserve">
<style type="text/css">
	.st0{fill-rule:evenodd;clip-rule:evenodd;fill:#FFFFFF;}
</style>
<g>
	<g id="WA_Logo_10_">
		<g>
			<path class="st0" d="M34.92,15.07C32.29,12.45,28.79,11,25.06,11c-7.68,0-13.94,6.22-13.94,13.87c0,2.45,0.64,4.83,1.86,6.94
				L11,39l7.39-1.93c2.04,1.11,4.33,1.69,6.66,1.69h0.01c0,0,0,0,0,0c7.68,0,13.94-6.22,13.94-13.87
				C39,21.18,37.55,17.69,34.92,15.07z M25.06,36.42L25.06,36.42c-2.08,0-4.12-0.56-5.9-1.61l-0.42-0.25l-4.39,1.14l1.17-4.26
				l-0.28-0.44c-1.16-1.84-1.77-3.96-1.77-6.14c0-6.36,5.2-11.53,11.59-11.53c3.1,0,6,1.2,8.19,3.38c2.19,2.18,3.39,5.08,3.39,8.16
				C36.64,31.24,31.45,36.42,25.06,36.42z M31.41,27.78c-0.35-0.17-2.06-1.01-2.38-1.13c-0.32-0.12-0.55-0.17-0.78,0.17
				c-0.23,0.35-0.9,1.13-1.1,1.36s-0.41,0.26-0.75,0.09c-0.35-0.17-1.47-0.54-2.8-1.72c-1.04-0.92-1.73-2.05-1.94-2.4
				c-0.2-0.35-0.02-0.53,0.15-0.71c0.16-0.16,0.35-0.4,0.52-0.61c0.17-0.2,0.23-0.35,0.35-0.58c0.12-0.23,0.06-0.43-0.03-0.61
				c-0.09-0.17-0.78-1.88-1.07-2.57c-0.28-0.68-0.57-0.58-0.78-0.6c-0.2-0.01-0.44-0.01-0.67-0.01c-0.23,0-0.61,0.09-0.93,0.43
				c-0.32,0.35-1.22,1.19-1.22,2.89s1.25,3.35,1.42,3.59c0.17,0.23,2.46,3.73,5.95,5.23c0.83,0.36,1.48,0.57,1.99,0.73
				c0.83,0.26,1.59,0.23,2.19,0.14c0.67-0.1,2.06-0.84,2.35-1.65c0.29-0.81,0.29-1.5,0.2-1.65C32,28.04,31.76,27.95,31.41,27.78z"/>
		</g>
	</g>
</g>
</svg>
