<?xml version="1.0" encoding="utf-8"?>
<!-- Generator: Adobe Illustrator 25.4.1, SVG Export Plug-In . SVG Version: 6.00 Build 0)  -->
<svg version="1.1" width="50px" height="50px" id="Layer_1" xmlns="http://www.w3.org/2000/svg" xmlns:xlink="http://www.w3.org/1999/xlink" x="0px" y="0px"
	 viewBox="0 0 50 50" style="enable-background:new 0 0 50 50;" xml:space="preserve">
<style type="text/css">
	.st0{display:none;fill:#999999;}
	.st1{fill:#FFFFFF;}
</style>
<g>
</g>
<rect class="st0" width="50" height="50"/>
<g>
	<g>
		<g>
			<path class="st1" d="M38.62,18.67c-0.12,2.65-1.97,6.29-5.56,10.9c-3.71,4.82-6.84,7.22-9.41,7.22c-1.59,0-2.93-1.47-4.03-4.4
				c-0.73-2.69-1.47-5.38-2.2-8.07c-0.82-2.93-1.69-4.4-2.63-4.4c-0.2,0-0.92,0.43-2.14,1.28l-1.28-1.65
				c1.35-1.18,2.67-2.36,3.98-3.55c1.79-1.55,3.14-2.37,4.04-2.45c2.12-0.2,3.43,1.25,3.92,4.35c0.53,3.35,0.9,5.43,1.1,6.25
				c0.61,2.78,1.29,4.17,2.02,4.17c0.57,0,1.43-0.9,2.57-2.7c1.14-1.8,1.75-3.17,1.83-4.12c0.16-1.56-0.45-2.33-1.83-2.33
				c-0.65,0-1.33,0.15-2.02,0.45c1.34-4.39,3.9-6.52,7.68-6.4C37.46,13.3,38.78,15.12,38.62,18.67z"/>
		</g>
	</g>
</g>
</svg>
