<?xml version="1.0" encoding="utf-8"?>
<!-- Generator: Adobe Illustrator 25.4.1, SVG Export Plug-In . SVG Version: 6.00 Build 0)  -->
<svg version="1.1" width="50px" height="50px" id="Layer_1" xmlns="http://www.w3.org/2000/svg" xmlns:xlink="http://www.w3.org/1999/xlink" x="0px" y="0px"
	 viewBox="0 0 50 50" style="enable-background:new 0 0 50 50;" xml:space="preserve">
<style type="text/css">
	.st0{display:none;fill:#FFFFFF;}
	.st1{fill:#FFFFFF;}
</style>
<g>
</g>
<rect class="st0" width="50" height="50"/>
<path class="st1" d="M37.87,18.54c-0.31-1.16-1.22-2.07-2.37-2.37C33.4,15.6,25,15.6,25,15.6s-8.4,0-10.49,0.56
	c-1.16,0.31-2.07,1.22-2.37,2.37C11.57,20.63,11.57,25,11.57,25s0,4.37,0.56,6.46c0.31,1.16,1.22,2.07,2.37,2.37
	C16.6,34.4,25,34.4,25,34.4s8.4,0,10.49-0.56c1.16-0.31,2.07-1.22,2.37-2.37c0.56-2.09,0.56-6.46,0.56-6.46S38.43,20.63,37.87,18.54
	z M22.31,29.03v-8.06L29.29,25L22.31,29.03z"/>
</svg>
