<?xml version="1.0" encoding="utf-8"?>
<!-- Generator: Adobe Illustrator 25.4.1, SVG Export Plug-In . SVG Version: 6.00 Build 0)  -->
<svg version="1.1" width="50px" height="50px" id="Layer_1" xmlns="http://www.w3.org/2000/svg" xmlns:xlink="http://www.w3.org/1999/xlink" x="0px" y="0px"
	 viewBox="0 0 50 50" style="enable-background:new 0 0 50 50;" xml:space="preserve">
<style type="text/css">
	.st0{display:none;fill:#999999;}
	.st1{fill:#FFFFFF;}
</style>
<rect x="0" class="st0" width="50" height="50"/>
<g>
	<path class="st1" d="M14.4,28.1c1.4,0,2.6,0,3.9,0c0.7,0,1.1,0.3,1.2,0.9c0.1,0.7-0.3,1.2-1.1,1.2c-1.5,0-2.9,0-4.3,0
		c-0.4,0-0.8,0-1.3,0c-0.5,0-1-0.1-1.3-0.7c-0.3-0.5-0.1-1,0.3-1.5c1.4-1.8,2.8-3.5,4.2-5.3c0.1-0.1,0.2-0.2,0.2-0.3
		c-0.1-0.2-0.2-0.1-0.3-0.1c-1,0-1.9,0-2.9,0c-0.2,0-0.4,0-0.7-0.1c-0.5-0.1-0.8-0.6-0.7-1.1c0.1-0.3,0.3-0.6,0.7-0.7
		c0.2-0.1,0.4-0.1,0.7-0.1c1.6,0,3.2,0,4.8,0c0.3,0,0.6,0,0.8,0.1c0.6,0.2,0.9,0.8,0.6,1.4c-0.2,0.5-0.6,1-0.9,1.4
		c-1.2,1.5-2.3,3-3.5,4.5C14.6,27.8,14.6,27.9,14.4,28.1L14.4,28.1z"/>
	<path class="st1" d="M24.8,23.4c0.2-0.3,0.4-0.5,0.8-0.6c0.7-0.1,1.4,0.3,1.4,1c0,1.8,0,3.6,0,5.4c0,0.5-0.3,0.9-0.7,1
		c-0.4,0.2-1,0-1.3-0.3c-0.2-0.2-0.2-0.2-0.4-0.1c-0.8,0.7-1.7,0.8-2.7,0.5c-1.6-0.5-2.3-1.8-2.4-3.3c-0.2-1.6,0.4-3,1.8-3.9
		C22.4,22.3,23.7,22.4,24.8,23.4L24.8,23.4z M21.6,26.7c0,0.4,0.1,0.8,0.4,1.1c0.5,0.6,1.4,0.8,2.1,0.3c0.1-0.1,0.2-0.2,0.3-0.3
		c0.5-0.7,0.5-1.8,0-2.5c-0.3-0.3-0.6-0.6-1.1-0.6C22.3,24.6,21.6,25.4,21.6,26.7z M31,26.7c-0.1-2.3,1.4-4,3.6-4.1
		c2.3-0.1,4,1.5,4,3.7c0.1,2.3-1.3,3.9-3.5,4.1C32.8,30.6,31,29,31,26.7L31,26.7z M33.3,26.5c0,0.4,0.1,0.9,0.4,1.3
		c0.5,0.6,1.4,0.8,2.1,0.3c0.1-0.1,0.2-0.2,0.3-0.3c0.5-0.7,0.5-1.8,0-2.5c-0.3-0.3-0.6-0.6-1.1-0.6C34,24.6,33.3,25.4,33.3,26.5z
		 M30.2,24.9c0,1.4,0,2.8,0,4.2c0,0.6-0.5,1.2-1.1,1.2c-0.1,0-0.2,0-0.3,0c-0.4-0.1-0.8-0.6-0.8-1.2V22c0-0.4,0-0.8,0-1.3
		c0-0.7,0.4-1.1,1.1-1.1c0.7,0,1.1,0.4,1.1,1.2C30.2,22.1,30.2,23.5,30.2,24.9z"/>
</g>
</svg>
