<?xml version="1.0" encoding="utf-8"?>
<svg viewBox="0 0 512 512" xmlns="http://www.w3.org/2000/svg">
  <defs>
    <path id="path-0" d="M 335.853 252.684 C 335.853 276.688 353.376 287.008 361.688 298.09 L 365.602 299.656 C 376.281 304.996 388.401 305.429 399.266 309.051" style="fill: none;"/>
    <path id="path-1" d="M 168.318 295.742 C 168.318 270.745 197.054 249.706 209.028 241.723 C 217.533 235.792 225.189 230.763 231.731 230.763 C 243.425 230.763 255.799 228.415 266.177 228.415 C 271.906 228.415 273.585 229.98 277.92 229.98 C 286.376 230.763 289.099 237.527 295.927 240.941 C 297.984 242.998 302.972 251.884 302.972 254.249 C 303.755 260.76 311.035 263.094 306.104 258.164 C 306.104 251.43 301.407 245.074 301.407 239.375 C 297.664 231.89 292.315 232.089 286.532 229.197 L 284.966 229.197 L 284.183 229.197" style="fill: none;"/>
  </defs>
  <style type="text/css">
	.zh-color{fill:#495057;}
</style>
  <path class="zh-color" d="M 231.76 191.039 L 260.562 177.551 L 361.456 177.551 L 361.456 228.927 L 295.981 228.927 C 283.491 220.847 268.32 216.083 251.951 216.083 C 235.582 216.083 220.47 220.847 207.921 228.927 L 142.447 228.927 L 142.447 194.676 L 215.449 194.676 C 221.096 194.676 226.685 193.446 231.76 191.039 Z M 105.945 194.676 L 105.945 348.805 C 105.945 367.695 122.313 383.056 142.447 383.056 L 361.456 383.056 C 381.588 383.056 397.958 367.695 397.958 348.805 L 397.958 177.551 C 397.958 158.659 381.588 143.3 361.456 143.3 L 260.562 143.3 C 254.916 143.3 249.327 144.531 244.251 146.941 L 215.449 160.425 L 197.198 160.425 L 197.198 151.863 C 197.198 147.154 193.092 143.3 188.073 143.3 L 151.572 143.3 C 146.553 143.3 142.447 147.154 142.447 151.863 L 142.447 160.425 C 122.313 160.425 105.945 175.785 105.945 194.676 Z M 201.761 288.865 C 201.761 252.612 243.587 229.955 277.046 248.081 C 292.576 256.492 302.141 272.04 302.141 288.865 C 302.141 325.12 260.317 347.778 226.856 329.651 C 211.327 321.239 201.761 305.691 201.761 288.865 Z" style=""/>
</svg>
